<svg xmlns="http://www.w3.org/2000/svg" viewBox="0 0 843 235" height="235" xmlns:xlink="http://www.w3.org/1999/xlink" width="843" xmlns:ev="http://www.w3.org/2001/xml-events"><defs/><g id="page1" transform="translate(5.5,5.5)"><rect x="0" height="225" y="0" width="833" fill="none"/><g id="shape1" transform="translate(39.161399,55.787413)"><path d="M30.7,61.4L100.3,61.4L100.3,61.4C117.2,61.4,131.0,47.7,131.0,30.7C131.0,13.7,117.2,.0,100.3,.0L30.7,.0L30.7,.0C13.7,.0,.0,13.7,.0,30.7C.0,47.7,13.7,61.4,30.7,61.4z" stroke="#ff7e79" stroke-width="1" fill-rule="nonzero" fill="#ff7e79"/><text xml:space="preserve" style="fill:#ffffff;font-family:微软雅黑,PingFang SC,Mircrosoft YaHei,Arial;font-size:24.00pt"><tspan x="47.0" y="37.2" style="font-size:12.00pt">View</tspan></text></g><g id="shape2" transform="translate(662.783446,55.787413)"><path d="M30.7,61.4L100.3,61.4L100.3,61.4C117.2,61.4,131.0,47.7,131.0,30.7C131.0,13.7,117.2,.0,100.3,.0L30.7,.0L30.7,.0C13.7,.0,.0,13.7,.0,30.7C.0,47.7,13.7,61.4,30.7,61.4z" stroke="#ff7e79" stroke-width="1" fill-rule="nonzero" fill="#ff7e79"/><text xml:space="preserve" style="fill:#ffffff;font-family:微软雅黑,PingFang SC,Mircrosoft YaHei,Arial;font-size:24.00pt"><tspan x="41.0" y="37.2" style="font-size:12.00pt">Model</tspan></text></g><g id="shape3" transform="translate(350.972423,55.787413)"><path d="M30.7,61.4L100.3,61.4L100.3,61.4C117.2,61.4,131.0,47.7,131.0,30.7C131.0,13.7,117.2,.0,100.3,.0L30.7,.0L30.7,.0C13.7,.0,.0,13.7,.0,30.7C.0,47.7,13.7,61.4,30.7,61.4z" stroke="#ff7e79" stroke-width="1" fill-rule="nonzero" fill="#ff7e79"/><text xml:space="preserve" style="fill:#ffffff;font-family:微软雅黑,PingFang SC,Mircrosoft YaHei,Arial;font-size:24.00pt"><tspan x="22.5" y="37.2" style="font-size:12.00pt">ViewModel</tspan></text></g><g id="shape4" transform="translate(481.940963,86.496063)"><path d="M.0,.0L174.8,.0" stroke="#ff7e79" stroke-width="1" fill="none"/><path d="M174.8,-3.0L180.8,.0L174.8,3.0L174.8,-3.0" stroke="#ff7e79" stroke-width="1" stroke-linecap="round" fill="#ff7e79"/><rect x="37.3" height="19.0" y="-44.5" width="123.0" fill="#ffffff"/><rect x="67.3" height="19.0" y="-25.5" width="63.0" fill="#ffffff"/><text xml:space="preserve" style="fill:#ff7e79;font-family:微软雅黑,PingFang SC,Mircrosoft YaHei,Arial;font-size:20.00pt"><tspan x="37.3" y="-29.5" style="font-size:10.00pt">ViewModel Updates</tspan><tspan x="67.3" y="-10.5" style="font-size:10.00pt">the Model</tspan></text></g><g id="shape5" transform="translate(350.972423,86.496063)"><path d="M-6.0,.0L-180.0,-0.0" stroke="#ff7e79" stroke-width="1" fill="none"/><path d="M-6.0,-3.0L.0,.0L-6.0,3.0L-6.0,-3.0" stroke="#ff7e79" stroke-width="1" stroke-linecap="round" fill="#ff7e79"/><rect x="-143.0" height="19.0" y="-44.5" width="108.0" fill="#ffffff"/><rect x="-125.0" height="19.0" y="-25.5" width="70.0" fill="#ffffff"/><text xml:space="preserve" style="fill:#ff7e79;font-family:微软雅黑,PingFang SC,Mircrosoft YaHei,Arial;font-size:20.00pt"><tspan x="-143.0" y="-29.5" style="font-size:10.00pt">Data Binding and </tspan><tspan x="-125.0" y="-10.5" style="font-size:10.00pt">Commands</tspan></text></g><g id="shape6" transform="translate(728.267717,117.204713)"><path d="M.0,.0L.0,40.2L-293.8,40.2L-293.8,6.0" stroke="#ff7e79" stroke-width="1" stroke-dasharray="11,5" fill="none"/><path d="M-296.8,6.0L-293.8,.0L-290.8,6.0L-296.8,6.0" stroke="#ff7e79" stroke-width="1" stroke-linecap="round" fill="#ff7e79"/><rect x="-198.1" height="19.0" y="46.7" width="111.0" fill="#ffffff"/><text xml:space="preserve" style="fill:#ff7e79;font-family:微软雅黑,PingFang SC,Mircrosoft YaHei,Arial;font-size:20.00pt"><tspan x="-198.1" y="61.7" style="font-size:10.00pt">Send Notifactions</tspan></text></g><g id="shape7" transform="translate(406.649968,117.204713)"><path d="M.0,.0L.0,40.2L-302.0,40.2L-302.0,6.0" stroke="#ff7e79" stroke-width="1" stroke-dasharray="11,5" fill="none"/><path d="M-305.0,6.0L-302.0,-0.0L-299.0,6.0L-305.0,6.0" stroke="#ff7e79" stroke-width="1" stroke-linecap="round" fill="#ff7e79"/><rect x="-202.2" height="19.0" y="46.7" width="111.0" fill="#ffffff"/><text xml:space="preserve" style="fill:#ff7e79;font-family:微软雅黑,PingFang SC,Mircrosoft YaHei,Arial;font-size:20.00pt"><tspan x="-202.2" y="61.7" style="font-size:10.00pt">Send Notifactions</tspan></text></g></g></svg>