<svg xmlns="http://www.w3.org/2000/svg" viewBox="0 0 542 302" height="302" xmlns:xlink="http://www.w3.org/1999/xlink" width="542" xmlns:ev="http://www.w3.org/2001/xml-events"><defs/><g id="page1" transform="translate(5.5,5.5)"><rect x="0" height="292" y="0" width="532" fill="none"/><g id="shape1" transform="translate(39.110236,38.740157)"><path d="M30.7,61.4L89.1,61.4L89.1,61.4C106.1,61.4,119.8,47.7,119.8,30.7C119.8,13.7,106.1,.0,89.1,.0L30.7,.0L30.7,.0C13.7,.0,.0,13.7,.0,30.7C.0,47.7,13.7,61.4,30.7,61.4z" stroke="#ff7e79" stroke-width="1" fill-rule="nonzero" fill="#ff7e79"/><text xml:space="preserve" style="fill:#ffffff;font-family:微软雅黑,PingFang SC,Mircrosoft YaHei,Arial;font-size:24.00pt"><tspan x="41.4" y="37.2" style="font-size:12.00pt">View</tspan></text></g><g id="shape2" transform="translate(373.047244,38.740157)"><path d="M30.7,61.4L89.1,61.4L89.1,61.4C106.1,61.4,119.8,47.7,119.8,30.7C119.8,13.7,106.1,.0,89.1,.0L30.7,.0L30.7,.0C13.7,.0,.0,13.7,.0,30.7C.0,47.7,13.7,61.4,30.7,61.4z" stroke="#ff7e79" stroke-width="1" fill-rule="nonzero" fill="#ff7e79"/><text xml:space="preserve" style="fill:#ffffff;font-family:微软雅黑,PingFang SC,Mircrosoft YaHei,Arial;font-size:24.00pt"><tspan x="21.9" y="37.2" style="font-size:12.00pt">Controller</tspan></text></g><path d="M.0,.0L.0,.0" stroke="#ff7e79" stroke-width="1" id="shape3" transform="translate(376.275591,84.448819)" fill="none"/><g id="shape4" transform="translate(158.952756,69.448819)"><path d="M.0,.0L208.1,-0.0" stroke="#ff7e79" stroke-width="1" fill="none"/><path d="M208.1,-3.0L214.1,-0.0L208.1,3.0L208.1,-3.0" stroke="#ff7e79" stroke-width="1" stroke-linecap="round" fill="#ff7e79"/><rect x="73.4" height="19.0" y="-9.5" width="72.0" fill="#ffffff"/><text xml:space="preserve" style="fill:#ff7e79;font-family:微软雅黑,PingFang SC,Mircrosoft YaHei,Arial;font-size:20.00pt"><tspan x="73.4" y="5.5" style="font-size:10.00pt">User Action</tspan></text></g><g id="shape5" transform="translate(200.338343,191.641744)"><path d="M30.7,61.4L89.1,61.4L89.1,61.4C106.1,61.4,119.8,47.7,119.8,30.7C119.8,13.7,106.1,.0,89.1,.0L30.7,.0L30.7,.0C13.7,.0,.0,13.7,.0,30.7C.0,47.7,13.7,61.4,30.7,61.4z" stroke="#ff7e79" stroke-width="1" fill-rule="nonzero" fill="#ff7e79"/><text xml:space="preserve" style="fill:#ffffff;font-family:微软雅黑,PingFang SC,Mircrosoft YaHei,Arial;font-size:24.00pt"><tspan x="35.4" y="37.2" style="font-size:12.00pt">Model</tspan></text></g><g id="shape6" transform="translate(432.968504,100.157480)"><path d="M.0,.0L-118.4,95.5" stroke="#ff7e79" stroke-width="1" fill="none"/><path d="M-116.6,97.8L-123.1,99.2L-120.3,93.1L-116.6,97.8" stroke="#ff7e79" stroke-width="1" stroke-linecap="round" fill="#ff7e79"/><rect x="-84.6" height="19.0" y="41.3" width="45.0" fill="#ffffff"/><text xml:space="preserve" style="fill:#ff7e79;font-family:微软雅黑,PingFang SC,Mircrosoft YaHei,Arial;font-size:20.00pt"><tspan x="-84.6" y="56.3" style="font-size:10.00pt">Update</tspan></text></g><g id="shape7" transform="translate(212.608243,197.791416)"><path d="M.0,.0L-109.0,-93.7" stroke="#ff7e79" stroke-width="1" fill="none"/><path d="M-111.0,-91.4L-113.6,-97.6L-107.1,-96.0L-111.0,-91.4" stroke="#ff7e79" stroke-width="1" stroke-linecap="round" fill="#ff7e79"/><rect x="-74.1" height="19.0" y="-54.7" width="45.0" fill="#ffffff"/><text xml:space="preserve" style="fill:#ff7e79;font-family:微软雅黑,PingFang SC,Mircrosoft YaHei,Arial;font-size:20.00pt"><tspan x="-74.1" y="-39.7" style="font-size:10.00pt">Update</tspan></text></g></g></svg>